<svg version="1.1" xmlns="http://www.w3.org/2000/svg" xmlns:xlink="http://www.w3.org/1999/xlink"  width="30px" height="30px" viewBox="0 0 30 30" class="icon-rss"><g><path fill="#F6B31C" class="bg" d="M30 15C30 23.3 23.3 30 15 30 6.7 30 0 23.3 0 15 0 6.7 6.7 0 15 0 23.3 0 30 6.7 30 15"/><path fill="#FFFFFF" d="M11.8 20.4c-1 0-1.8-0.8-1.8-1.8s0.8-1.8 1.8-1.8c1 0 1.8 0.8 1.8 1.8S12.8 20.4 11.8 20.4M18.1 20.2c-0.1 0.1-0.3 0.2-0.4 0.2h-1.2c-0.3 0-0.6-0.2-0.6-0.5 -0.3-2.8-2.5-5.1-5.3-5.3 -0.3 0-0.5-0.3-0.5-0.6V12.7c0-0.2 0.1-0.3 0.2-0.4 0.1-0.1 0.3-0.2 0.4-0.2h0c2 0.2 3.8 1 5.2 2.4 1.4 1.4 2.3 3.3 2.4 5.2C18.3 19.9 18.3 20 18.1 20.2M22.9 20.2c-0.1 0.1-0.3 0.2-0.4 0.2h-1.3c-0.3 0-0.6-0.2-0.6-0.6 -0.3-5.4-4.6-9.6-9.9-10 -0.3 0-0.6-0.3-0.6-0.6v-1.3c0-0.2 0.1-0.3 0.2-0.4 0.1-0.1 0.3-0.2 0.4-0.2h0c3.2 0.2 6.3 1.5 8.6 3.8 2.3 2.3 3.7 5.3 3.8 8.6C23 19.9 23 20 22.9 20.2"/></g></svg>
